<svg xmlns="http://www.w3.org/2000/svg" viewBox="0 0 30 30" width="30px" height="30px"><path fill="#c2e8ff" d="M9.8,25.9c-2.4,0-4.7-0.5-6.8-1.5c2.5-0.1,4.8-1,6.8-2.5l1.1-0.9l-1.4,0c-2,0-3.7-1.2-4.6-2.9 c0.1,0,0.2,0,0.3,0c0.6,0,1.1-0.1,1.6-0.2l2-0.6l-2.1-0.4c-2.2-0.4-3.8-2.2-4.2-4.4c0.6,0.2,1.3,0.4,2,0.4l1.7,0.1l-1.5-1 c-1.5-1-2.3-2.6-2.3-4.4c0-0.7,0.1-1.4,0.4-2c3,3.3,7.2,5.4,11.7,5.6l0.7,0l-0.1-0.6c-0.1-0.4-0.1-0.8-0.1-1.2 c0-2.9,2.4-5.2,5.2-5.2c1.4,0,2.8,0.6,3.8,1.7L24.4,6l0.3-0.1c0.9-0.2,1.7-0.4,2.5-0.8c-0.4,0.7-1,1.2-1.7,1.6L25.1,7l0.4,0.7 l0.4,0c0.6-0.1,1.1-0.2,1.7-0.3c-0.5,0.6-1.1,1.1-1.7,1.5L25.6,9l0,0.3c0,0.2,0,0.5,0,0.7C25.6,17.8,19.7,25.9,9.8,25.9z"/><path fill="#7496c4" d="M20.4,4.6c1.3,0,2.6,0.5,3.5,1.5l0.4,0.4l0.5-0.1c0.2,0,0.4-0.1,0.5-0.1c0,0,0,0-0.1,0l-0.8,0.5 l0.4,0.8l0.3,0.6l0.7-0.1c0,0,0,0,0,0c-0.1,0.1-0.2,0.2-0.4,0.3l-0.4,0.3l0,0.5c0,0.2,0,0.5,0,0.7c0,3.7-1.4,7.5-4,10.4 c-2,2.3-5.6,5-11.4,5c-1.6,0-3.3-0.3-4.8-0.8c1.9-0.4,3.6-1.2,5.1-2.4l2.2-1.7l-2.8-0.1c-1.5,0-2.9-0.8-3.7-1.9 c0.4,0,0.8-0.1,1.2-0.2l4.1-1.1l-4.1-0.8c-1.7-0.3-3.1-1.6-3.6-3.2c0.4,0.1,0.9,0.2,1.3,0.2l3.5,0.1l-2.9-1.9 C4,10.6,3.2,9.2,3.2,7.6c0-0.3,0-0.7,0.1-1c3,3.1,7.1,4.9,11.5,5.1l1.3,0.1l-0.3-1.3c-0.1-0.4-0.1-0.7-0.1-1.1 C15.6,6.8,17.8,4.6,20.4,4.6 M20.4,3.6c-3.2,0-5.7,2.6-5.7,5.7c0,0.4,0.1,0.9,0.1,1.3c-4.8-0.2-9-2.5-11.8-6 C2.5,5.5,2.2,6.5,2.2,7.6c0,2,1,3.8,2.6,4.8c-0.9,0-1.8-0.3-2.6-0.7c0,0,0,0,0,0.1c0,2.8,2,5.1,4.6,5.6c-0.5,0.1-1,0.2-1.5,0.2 c-0.4,0-0.7,0-1.1-0.1c0.7,2.3,2.9,3.9,5.4,4c-2,1.5-4.4,2.5-7.1,2.5c-0.5,0-0.9,0-1.4-0.1c2.5,1.6,5.6,2.6,8.8,2.6 c10.6,0,16.3-8.8,16.3-16.3c0-0.2,0-0.5,0-0.7c1.1-0.8,2.1-1.8,2.9-3c-1,0.5-2.1,0.8-3.2,0.9l0,0c1.2-0.7,2-1.8,2.5-3.1 c-1.1,0.7-2.3,1.1-3.6,1.4C23.5,4.3,22,3.6,20.4,3.6L20.4,3.6z"/><path fill="#7496c4" d="M25.1,9.3C25.1,8,24.7,7,24,6.2l0.7-0.7c0.9,0.9,1.3,2.2,1.4,3.7L25.1,9.3z"/></svg>